HIERARCHY
ROOT hip
{
  OFFSET 0.0 0.0 0.0
  CHANNELS 6 Xposition Yposition Zposition Zrotation Yrotation Xrotation
  JOINT abdomen
  {
    OFFSET 0.0 20.6881 -0.73152
    CHANNELS 3 Zrotation Xrotation Yrotation
    JOINT chest
    {
      OFFSET 0.0 11.7043 -0.48768
      CHANNELS 3 Zrotation Xrotation Yrotation
      JOINT neck
      {
        OFFSET 0.0 22.1894 -2.19456
        CHANNELS 3 Zrotation Xrotation Yrotation
        JOINT head
        {
          OFFSET -0.24384 7.07133 1.2192
          CHANNELS 3 Zrotation Xrotation Yrotation
          JOINT leftEye
          {
            OFFSET 4.14528 8.04674 8.04672
            CHANNELS 3 Zrotation Xrotation Yrotation
            End Site
            {
              OFFSET 1.0 0.0 0.0
            }
          }
          JOINT rightEye
          {
            OFFSET -3.6576 8.04674 8.04672
            CHANNELS 3 Zrotation Xrotation Yrotation
            End Site
            {
              OFFSET 1.0 0.0 0.0
            }
          }
        }
      }
      JOINT rCollar
      {
        OFFSET -2.68224 19.2634 -4.8768
        CHANNELS 3 Zrotation Xrotation Yrotation
        JOINT rShldr
        {
          OFFSET -8.77824 -1.95073 1.46304
          CHANNELS 3 Zrotation Xrotation Yrotation
          JOINT rForeArm
          {
            OFFSET -28.1742 -1.7115 0.48768
            CHANNELS 3 Zrotation Xrotation Yrotation
            JOINT rHand
            {
              OFFSET -22.5879 0.773209 7.07136
              CHANNELS 3 Zrotation Xrotation Yrotation
              JOINT rThumb1
              {
                OFFSET -1.2192 -0.487915 3.41376
                CHANNELS 3 Zrotation Xrotation Yrotation
                JOINT rThumb2
                {
                  OFFSET -3.37035 -0.52449 3.41376
                  CHANNELS 3 Zrotation Xrotation Yrotation
                  End Site
                  {
                    OFFSET -1.78271 -1.18214 1.43049
                  }
                }
              }
              JOINT rIndex1
              {
                OFFSET -7.75947 0.938293 5.60832
                CHANNELS 3 Zrotation Xrotation Yrotation
                JOINT rIndex2
                {
                  OFFSET -2.54057 -0.884171 1.56538
                  CHANNELS 3 Zrotation Xrotation Yrotation
                  End Site
                  {
                    OFFSET -1.62519 -0.234802 1.16502
                  }
                }
              }
              JOINT rMid1
              {
                OFFSET -8.24714 1.18213 3.41376
                CHANNELS 3 Zrotation Xrotation Yrotation
                JOINT rMid2
                {
                  OFFSET -3.10165 -0.590103 1.0647
                  CHANNELS 3 Zrotation Xrotation Yrotation
                  End Site
                  {
                    OFFSET -2.48547 -0.328903 0.83742
                  }
                }
              }
              JOINT rRing1
              {
                OFFSET -8.82822 0.546677 1.51678
                CHANNELS 3 Zrotation Xrotation Yrotation
                JOINT rRing2
                {
                  OFFSET -2.60934 -0.819778 -0.0198488
                  CHANNELS 3 Zrotation Xrotation Yrotation
                  End Site
                  {
                    OFFSET -2.33842 -0.294052 0.168128
                  }
                }
              }
              JOINT rPinky1
              {
                OFFSET -8.27202 -0.0477905 -0.4584
                CHANNELS 3 Zrotation Xrotation Yrotation
                JOINT rPinky2
                {
                  OFFSET -1.82734 -0.647385 -0.700984
                  CHANNELS 3 Zrotation Xrotation Yrotation
                  End Site
                  {
                    OFFSET -1.69225 -0.51767 -0.607171
                  }
                }
              }
            }
          }
        }
      }
      JOINT lCollar
      {
        OFFSET 2.68224 19.2634 -4.8768
        CHANNELS 3 Zrotation Xrotation Yrotation
        JOINT lShldr
        {
          OFFSET 8.77824 -1.95073 1.46304
          CHANNELS 3 Zrotation Xrotation Yrotation
          JOINT lForeArm
          {
            OFFSET 28.1742 -1.7115 0.48768
            CHANNELS 3 Zrotation Xrotation Yrotation
            JOINT lHand
            {
              OFFSET 22.5879 0.773209 7.07136
              CHANNELS 3 Zrotation Xrotation Yrotation
              JOINT lThumb1
              {
                OFFSET 1.2192 -0.487915 3.41376
                CHANNELS 3 Zrotation Xrotation Yrotation
                JOINT lThumb2
                {
                  OFFSET 3.37035 -0.52449 3.41376
                  CHANNELS 3 Zrotation Xrotation Yrotation
                  End Site
                  {
                    OFFSET 1.78271 -1.18214 1.43049
                  }
                }
              }
              JOINT lIndex1
              {
                OFFSET 7.75947 0.938293 5.60832
                CHANNELS 3 Zrotation Xrotation Yrotation
                JOINT lIndex2
                {
                  OFFSET 2.54057 -0.884171 1.56538
                  CHANNELS 3 Zrotation Xrotation Yrotation
                  End Site
                  {
                    OFFSET 1.62519 -0.234802 1.16502
                  }
                }
              }
              JOINT lMid1
              {
                OFFSET 8.24714 1.18213 3.41376
                CHANNELS 3 Zrotation Xrotation Yrotation
                JOINT lMid2
                {
                  OFFSET 3.10165 -0.590103 1.0647
                  CHANNELS 3 Zrotation Xrotation Yrotation
                  End Site
                  {
                    OFFSET 2.48547 -0.328903 0.83742
                  }
                }
              }
              JOINT lRing1
              {
                OFFSET 8.82822 0.546677 1.51678
                CHANNELS 3 Zrotation Xrotation Yrotation
                JOINT lRing2
                {
                  OFFSET 2.60934 -0.819778 -0.0198488
                  CHANNELS 3 Zrotation Xrotation Yrotation
                  End Site
                  {
                    OFFSET 2.33842 -0.294052 0.168128
                  }
                }
              }
              JOINT lPinky1
              {
                OFFSET 8.27202 -0.0477905 -0.4584
                CHANNELS 3 Zrotation Xrotation Yrotation
                JOINT lPinky2
                {
                  OFFSET 1.82734 -0.647385 -0.700984
                  CHANNELS 3 Zrotation Xrotation Yrotation
                  End Site
                  {
                    OFFSET 1.69225 -0.51767 -0.607171
                  }
                }
              }
            }
          }
        }
      }
    }
  }
  JOINT rButtock
  {
    OFFSET -8.77824 4.35084 1.2192
    CHANNELS 3 Zrotation Xrotation Yrotation
    JOINT rThigh
    {
      OFFSET 0.0 -1.70687 -2.19456
      CHANNELS 3 Zrotation Xrotation Yrotation
      JOINT rShin
      {
        OFFSET 0.0 -36.8199 0.73152
        CHANNELS 3 Zrotation Xrotation Yrotation
        JOINT rFoot
        {
          OFFSET 0.73152 -45.1104 -5.12064
          CHANNELS 3 Zrotation Xrotation Yrotation
          End Site
          {
            OFFSET -1.1221 -3.69964 12.103
          }
        }
      }
    }
  }
  JOINT lButtock
  {
    OFFSET 8.77824 4.35084 1.2192
    CHANNELS 3 Zrotation Xrotation Yrotation
    JOINT lThigh
    {
      OFFSET 0.0 -1.70687 -2.19456
      CHANNELS 3 Zrotation Xrotation Yrotation
      JOINT lShin
      {
        OFFSET 0.0 -36.8199 0.73152
        CHANNELS 3 Zrotation Xrotation Yrotation
        JOINT lFoot
        {
          OFFSET -0.73152 -45.1104 -5.12064
          CHANNELS 3 Zrotation Xrotation Yrotation
          End Site
          {
            OFFSET 1.1221 -3.69964 12.103
          }
        }
      }
    }
  }
}
MOTION
Frames: 4
Frame Time: 0.00833333
-4.287239999999999 99.0213 50.2113 0.6556 7.0096 1.8995 1.9543 4.2886 0.405495 2.8953 -3.61833 0.205719 3.79021 -8.45835 1.48274 -6.8771 -14.209 0.52185 -0.0 0.0 0.0 -0.0 0.0 0.0 -4.47962e-14 -6.78004e-15 -8.29678e-14 69.7967 28.3956 0.684277 -16.6854 -9.34027 31.133 -0.16982 -11.6587 -1.66179 8.75225e-10 -1.41299e-09 -3.66081e-10 1.51514e-09 -2.45074e-09 -6.28516e-10 8.75231e-10 -1.41298e-09 -3.66094e-10 7.73091 5.47488 0.417314 8.75234e-10 -1.413e-09 -3.66082e-10 2.90554 0.965183 0.102902 8.75224e-10 -1.41299e-09 -3.66084e-10 10.2786 0.731801 0.0259123 8.75218e-10 -1.41299e-09 -3.66075e-10 2.22167 -0.733487 -0.20892 -4.49518e-14 -6.7881e-15 -8.31137e-14 -80.6217 26.291 14.2284 16.6081 -9.26856 -30.9569 0.350176 -16.5663 2.39635 1.60761e-09 7.90096e-10 -3.12869e-10 2.78297e-09 1.36452e-09 -5.21853e-10 1.6076e-09 7.90095e-10 -3.12854e-10 -7.73091 5.47488 -0.417314 1.60761e-09 7.90096e-10 -3.12866e-10 -2.90554 0.965183 -0.102902 1.60761e-09 7.90095e-10 -3.12866e-10 -10.2786 0.731801 -0.0259123 1.60762e-09 7.90098e-10 -3.12876e-10 -2.22167 -0.733487 0.20892 -2.03217e-16 0.0 -3.88251e-19 -2.149 -16.6127 -2.44892 -0.273875 30.4238 -0.146277 10.5347 30.0742 -24.4152 2.03217e-16 0.0 3.88251e-19 4.43985 -20.1468 2.06266 0.236954 34.5917 -0.504458 0.698903 2.55588 6.82508
-4.40696 98.9134 51.0803 0.1521 7.0293 1.734 2.40553 4.34966 0.0105931 2.83006 -3.65062 0.0956135 4.24301 -7.99467 1.75305 -7.18972 -14.5492 0.841534 -0.0 0.0 0.0 -0.0 0.0 0.0 -2.54908e-14 4.40366e-15 3.18389e-14 69.2224 29.1118 1.31173 -17.0174 -9.66773 31.8522 -0.181192 -12.0353 -1.71708 3.06463e-10 -3.94009e-10 -1.93582e-11 5.28395e-10 -6.81017e-10 -3.19364e-11 3.06471e-10 -3.94005e-10 -1.93808e-11 7.73091 5.47488 0.417314 3.06479e-10 -3.94025e-10 -1.93606e-11 2.90554 0.965183 0.102902 3.06463e-10 -3.94011e-10 -1.93663e-11 10.2786 0.731801 0.0259123 3.06457e-10 -3.94012e-10 -1.9356e-11 2.22167 -0.733487 -0.20892 -2.56971e-14 4.39723e-15 3.16297e-14 -80.593 25.9555 15.0745 17.0286 -9.68244 -31.8673 0.370348 -17.0445 2.46951 1.38059e-09 1.92639e-10 2.97259e-10 2.38283e-09 3.22859e-10 5.32992e-10 1.38059e-09 1.92639e-10 2.97275e-10 -7.73091 5.47488 -0.417314 1.3806e-09 1.92639e-10 2.97263e-10 -2.90554 0.965183 -0.102902 1.38059e-09 1.92639e-10 2.97263e-10 -10.2786 0.731801 -0.0259123 1.3806e-09 1.92642e-10 2.97255e-10 -2.22167 -0.733487 0.20892 -2.03217e-16 0.0 -3.88251e-19 -1.47604 -15.9235 -2.20173 -0.262968 29.6614 -0.151373 10.3906 30.1314 -24.0273 2.03217e-16 0.0 3.88251e-19 4.7855 -21.1958 1.59718 0.230493 34.1692 -0.488898 0.815499 1.88856 7.57567
-4.52271 98.7413 51.9493 -0.3392 7.0722 1.5928 2.84125 4.4082 -0.20538 2.74821 -3.6477 0.0353734 4.46227 -7.68612 1.90119 -7.38067 -14.7743 1.02662 -0.0 0.0 0.0 -0.0 0.0 0.0 -1.42482e-14 1.15307e-14 1.21756e-13 68.6162 29.5284 1.91883 -17.3492 -10.0037 32.576 -0.19398 -12.4505 -1.77817 -1.08396e-10 3.49634e-10 2.41713e-10 -1.91273e-10 6.10838e-10 4.17273e-10 -1.08388e-10 3.49638e-10 2.41684e-10 7.73091 5.47488 0.417314 -1.08378e-10 3.49616e-10 2.41709e-10 2.90554 0.965183 0.102902 -1.08396e-10 3.49631e-10 2.41702e-10 10.2786 0.731801 0.0259123 -1.08401e-10 3.49629e-10 2.41713e-10 2.22167 -0.733487 -0.20892 -1.44771e-14 1.15266e-14 1.21507e-13 -80.4967 25.8128 15.7143 17.4039 -10.0598 -32.6962 0.388155 -17.4394 2.53038 1.09639e-09 -2.87141e-10 7.13064e-10 1.8859e-09 -5.12301e-10 1.25003e-09 1.09639e-09 -2.8714e-10 7.1308e-10 -7.73091 5.47488 -0.417314 1.09639e-09 -2.8714e-10 7.13068e-10 -2.90554 0.965183 -0.102902 1.09639e-09 -2.87141e-10 7.13067e-10 -10.2786 0.731801 -0.0259123 1.0964e-09 -2.87138e-10 7.13061e-10 -2.22167 -0.733487 0.20892 -2.03217e-16 0.0 -3.88251e-19 -0.883203 -15.2706 -2.00965 -0.252891 28.9172 -0.15724 10.2727 30.2415 -23.6534 2.03217e-16 0.0 3.88251e-19 5.07668 -22.2621 1.15204 0.224024 33.7383 -0.473375 0.936261 1.27821 8.24782
-4.6233699999999995 98.5042 52.811299999999996 -0.7649 7.1372 1.486 3.28117 4.42556 -0.19891 2.64988 -3.59272 0.0367873 4.36288 -7.48739 1.88548 -7.41655 -14.916 1.03124 -0.0 0.0 0.0 -0.0 0.0 0.0 -1.55947e-14 1.36255e-14 1.80644e-13 67.9887 29.59 2.45894 -17.6837 -10.3514 33.3118 -0.209065 -12.9228 -1.84788 -3.00402e-10 6.86318e-10 3.82981e-10 -5.24167e-10 1.19633e-09 6.60421e-10 -3.00393e-10 6.86323e-10 3.82951e-10 7.73091 5.47488 0.417314 -3.00385e-10 6.86304e-10 3.82978e-10 2.90554 0.965183 0.102902 -3.00399e-10 6.86317e-10 3.82972e-10 10.2786 0.731801 0.0259123 -3.00406e-10 6.86314e-10 3.82981e-10 2.22167 -0.733487 -0.20892 -1.58066e-14 1.3625e-14 1.8039e-13 -80.3655 25.9362 16.1473 17.7375 -10.4053 -33.4374 0.402383 -17.7338 2.57609 6.7841e-10 -6.19103e-10 8.48157e-10 1.16063e-09 -1.08728e-09 1.47834e-09 6.78413e-10 -6.19101e-10 8.48173e-10 -7.73091 5.47488 -0.417314 6.78414e-10 -6.19103e-10 8.4816e-10 -2.90554 0.965183 -0.102902 6.7841e-10 -6.19103e-10 8.48158e-10 -10.2786 0.731801 -0.0259123 6.78418e-10 -6.191e-10 8.48153e-10 -2.22167 -0.733487 0.20892 -2.03217e-16 0.0 -3.88251e-19 -0.374064 -14.6705 -1.88527 -0.243498 28.1541 -0.166467 10.2413 30.4949 -23.3457 2.03217e-16 0.0 3.88251e-19 5.30986 -23.3641 0.715317 0.217774 33.3111 -0.458685 1.0556 0.727483 8.82854
